<?xml version="1.0" encoding="utf-8"?>
<!-- Generator: Adobe Illustrator 24.3.0, SVG Export Plug-In . SVG Version: 6.00 Build 0)  -->
<svg version="1.1" id="Design" xmlns="http://www.w3.org/2000/svg" xmlns:xlink="http://www.w3.org/1999/xlink" x="0px" y="0px"
	 viewBox="0 0 143.4 150.6" style="enable-background:new 0 0 143.4 150.6;" xml:space="preserve">
<style type="text/css">
	.st0{fill:#F0F0F0;}
</style>
<g>
	<path class="st0" d="M27.5,150.6H0V42.9h6.6l9.1,10.5c4.4-4,9.4-7.1,15-9.3s11.4-3.3,17.6-3.3c6.6,0,12.8,1.3,18.6,3.8
		s10.9,6,15.3,10.4s7.8,9.5,10.3,15.4s3.8,12.1,3.8,18.8v61.6H68.8V89c0-2.8-0.5-5.5-1.6-8s-2.6-4.7-4.4-6.6
		c-1.9-1.9-4.1-3.3-6.5-4.4c-2.5-1.1-5.1-1.6-7.9-1.6c-2.9,0-5.6,0.5-8.2,1.6c-2.6,1.1-4.8,2.6-6.6,4.4c-1.9,1.9-3.4,4.1-4.4,6.6
		c-1.1,2.5-1.6,5.2-1.6,8L27.5,150.6L27.5,150.6z"/>
	<path class="st0" d="M143.4,150.6h-27.7V0h27.7V150.6z"/>
</g>
</svg>
